<svg version="1.1" id="ManyPets" xmlns="http://www.w3.org/2000/svg" x="0" y="0" viewBox="0 0 185.22 40.26" xml:space="preserve"><style>.st0{fill:#294638}</style><path class="st0" d="M61.89 9.89h3.28c.74 0 1.42.4 1.77 1.05l.75 1.36c1.22-1.78 3.32-2.84 6.13-2.84 4.96 0 7.86 3.09 7.86 9.26v12.92h-6.22V19.68c0-2.6-.47-4.92-3.46-4.92-3.51 0-3.88 3.13-3.88 6.85v10.03H61.9V9.89zM90.92 30.14L82.4 9.89h6.83l4.96 13.07 5.1-13.07h6.69L93.87 38.72h-6.71l3.76-8.58zM108.15.39h9.69c5.71 0 12.64 1.01 12.64 10.37 0 10.08-8.14 10.75-13.2 10.75h-2.67v10.12h-6.46V.39zm8.84 15.77c3.37 0 6.88-.63 6.88-5.35 0-4.77-3.79-5.06-6.88-5.11h-2.39v10.46h2.39zM130.57 20.93c0-6.56 3.7-11.47 10.72-11.47 7.49 0 10.34 5.3 10.34 11.14 0 .77-.05 1.35-.19 2.17h-14.46c.42 2.94 2.86 4.15 6.37 4.15 3.6 0 5.94-1.16 7.16-1.83v5.21c-1.45.77-4.17 1.78-8.19 1.78-7.17-.01-11.75-3.73-11.75-11.15zm14.79-2.22c-.09-2.36-1.59-4.15-4.07-4.15-2.29 0-3.98 1.64-4.26 4.15h8.33zM170.9 30.81v-5.06c.89.53 3.42 1.69 5.8 1.69 1.87 0 2.76-.87 2.76-2.12 0-3.81-8.52-1.74-8.52-9.3 0-4.53 3.14-6.56 7.72-6.56 2.48 0 4.4.58 5.05.96v5.01c-1.26-.68-2.9-1.4-4.63-1.4-1.64 0-2.34.77-2.34 1.74 0 3.28 8.47 1.4 8.47 9.06 0 4.87-3.37 7.23-8.1 7.23-2.56.01-4.99-.62-6.21-1.25zM26.28 19.04c-.04-.23-.34-.28-.45-.08l-7.85 14.39h-.46L9.58 18.9c-.11-.2-.41-.15-.45.08L6.75 32.67c-.02.12-.12.2-.24.2H.67c-.15 0-.27-.14-.24-.29L6.4 1.44h.46L17.5 20.97c.09.17.33.17.42 0L28.56 1.44h.46l4.87 25.26c.82 3.96 3.28 7.24 6.43 8.57 2.92 1.24 6.21.77 9.51-1.36 0 0 .17-.14.27-.06.1.08-.03.26-.03.26-2.88 5.06-7.53 4.68-8.65 4.51-.09-.01-.15.1-.09.17.32.38.92.86.92.86-4.99 1.25-7.56-2.55-8.07-3.41-.04-.07-.15-.06-.17.02-.18.59-.04 1.58-.04 1.58-3.3-2.09-3.46-5.59-3.42-6.65 0-.09-.12-.13-.17-.05-.41.65-.83 1.75-.83 1.75-1.01-1.89-1.66-4.42-1.94-6.2l-1.33-7.65zM165.47 26.81c-2.86 0-3.28-1.64-3.28-3.95V14.9h5.76V9.89h-5.76V3.14h-2.53c.05 1.84-.93 7.9-7.53 8.79v2.97h3.84v8.82c0 5.79 2.76 8.34 8.05 8.34 2.25 0 3.98-.43 4.91-.92v-5.16c-1.03.49-2.11.83-3.46.83z"/><path class="st0" d="M53.69 10.96l-.71 1.34c-1.36-1.64-3.51-2.84-6.79-2.84-6.04 0-10.39 4.39-10.39 11.43 0 7.47 4.96 11.18 10.25 11.18 2.03 0 3.66-.54 4.89-1.3.55-.41 1.08-.88 1.61-1.41 0 0 .07-.09.16-.12.05-.06.09-.11.13-.17l-.12.16c.03-.01.06-.01.08.01.12.06.03.26.03.26a10.4 10.4 0 01-.92 2.12h6.83V9.89h-3.25c-.76 0-1.45.41-1.8 1.07zm-6.33 15.71c-2.86 0-5.1-1.98-5.1-5.88s2.39-5.98 5.2-5.98c2.76 0 5.2 1.83 5.2 5.93-.01 4.29-2.68 5.93-5.3 5.93z"/></svg>