<svg xmlns="http://www.w3.org/2000/svg" viewBox="0 0 2268 476">
  <path d="M812,0H700V346c0,32-24,32-42,32H644v98h54A113.9,113.9,0,0,0,812,362V336h0Z" fill="#242423"/>
  <path d="M1680,0a154,154,0,0,0-126,65.4A154,154,0,0,0,1274,154V476h112V154h0a56,56,0,0,1,56-56h0a56,56,0,0,1,56,56h0V476h112V154h0a56,56,0,0,1,56-56h0a56,56,0,0,1,56,56h0V476h112V154A153.9,153.9,0,0,0,1680,0Z" fill="#242423"/>
  <path d="M2072,0c-108.2,0-196,87.8-196,196V476h112V373.1a195.2,195.2,0,0,0,84,18.9c108.2,0,196-87.8,196-196S2180.2,0,2072,0Zm0,280a84,84,0,1,1,84-84A84,84,0,0,1,2072,280Z" fill="#242423"/>
  <path d="M1106,238v68a69.9,69.9,0,0,1-70,70h0a69.9,69.9,0,0,1-70-70V238H854v58c0,124,80.6,180,180,180h4c99.4,0,180-56,180-180V238Z" fill="#ffb715"/>
  <path d="M1011,156.3H947.2l35.9-35c18.8-18.5,30.3-33.7,30.3-58.1,0-36.4-23.9-63.2-62.1-63.2s-62,25.3-62,64.7v2.6h44.1V63.2c0-13.2,5.6-22,17.6-22s17.7,9.1,17.7,21.7c0,10.9-7.7,21.8-18.8,32.8L889,157.8V196h122Z" fill="#242423"/>
  <path d="M1122.5,196h44.1V154.5H1183V114.9h-16.4V0h-44.1l-79.3,116.3v38.2h79.3Zm-33.8-81.1L1124,60v54.9Z" fill="#242423"/>
  <circle cx="154" cy="322" r="84" fill="#ffb715"/>
  <path d="M238,70a168,168,0,1,1-118.8,49.2A166.9,166.9,0,0,1,238,70m0-70C106.6,0,0,106.6,0,238S106.6,476,238,476,476,369.4,476,238,369.4,0,238,0Z" fill="#242423"/>
  <circle cx="445" cy="31" r="31" fill="#ffb715"/>
</svg>
