<svg width="170" height="54" style="background-color: #000030" xmlns="http://www.w3.org/2000/svg"><path fill-rule="evenodd" clip-rule="evenodd" d="M113.543 25.134v18.819h10.109v-5.444c0-2.993.02-5.443.045-5.443.071 0 .266.215.266.296 0 .04.14.218.311.395.171.176.311.358.311.405 0 .047.105.184.233.304.129.12.234.248.234.287 0 .037.14.224.311.413.171.189.311.374.311.412 0 .038.105.167.233.287.129.12.234.26.234.311 0 .051.105.191.233.311s.233.25.233.287c0 .039.14.224.311.413.171.19.311.375.311.413 0 .038.105.167.233.287.129.12.234.26.234.311 0 .051.105.191.233.311s.233.25.233.288c0 .037.14.223.311.412.171.189.311.375.311.413 0 .038.105.167.234.287.128.12.233.26.233.311 0 .052.105.191.233.311s.233.249.233.287c0 .038.14.224.312.413.171.19.311.375.311.413 0 .038.105.167.233.287.128.12.233.26.233.31 0 .052.105.192.234.312.128.12.233.25.233.287 0 .038.14.224.311.413.171.189.311.374.311.41 0 .293-.04.291 7.318.27 7.734-.02 7.342.007 6.857-.493a5.89 5.89 0 0 1-.486-.576c-.106-.15-.324-.4-.486-.558-.162-.156-.294-.32-.294-.36 0-.043-.167-.247-.37-.455a6.703 6.703 0 0 1-.562-.65c-.105-.15-.323-.4-.485-.556-.161-.157-.294-.32-.294-.362 0-.042-.166-.246-.37-.454a6.75 6.75 0 0 1-.562-.65c-.105-.149-.323-.4-.484-.556-.162-.157-.295-.318-.295-.358 0-.04-.21-.293-.466-.562-.257-.27-.467-.522-.467-.562 0-.038-.175-.24-.389-.449-.213-.209-.388-.41-.388-.45 0-.039-.21-.291-.467-.561-.257-.27-.467-.522-.467-.561 0-.04-.174-.242-.389-.45-.213-.208-.388-.41-.388-.45 0-.039-.21-.291-.467-.56-.257-.27-.467-.523-.467-.562 0-.04-.174-.242-.388-.45-.214-.208-.389-.41-.389-.45 0-.038-.21-.291-.467-.561-.257-.27-.466-.522-.466-.561 0-.039-.175-.242-.389-.45-.214-.208-.389-.41-.389-.45 0-.039-.211-.292-.468-.563-.258-.27-.44-.512-.405-.536.035-.025.149-.168.254-.317.104-.15.522-.605.93-1.011.408-.406.828-.861.934-1.011.106-.15.51-.59.899-.98.388-.388.809-.842.934-1.008.125-.166.545-.62.933-1.011.388-.39.808-.844.933-1.009.125-.165.603-.682 1.064-1.15.459-.467.835-.881.835-.92 0-.04.342-.411.76-.826.417-.416.846-.878.951-1.028.106-.15.526-.604.933-1.01.408-.407.827-.862.931-1.012.104-.15.253-.329.329-.398a.505.505 0 0 0 .14-.33v-.205h-13.642l-.411.442c-.226.243-.411.47-.411.505 0 .035-.175.242-.389.46-.214.218-.389.431-.389.473 0 .042-.14.21-.311.375-.171.165-.311.33-.311.369 0 .039-.175.258-.389.487-.214.228-.389.448-.389.486 0 .038-.14.205-.311.369-.171.164-.311.33-.311.369 0 .038-.175.258-.388.486-.215.23-.39.445-.39.48 0 .035-.174.242-.388.46-.214.22-.389.432-.389.474 0 .042-.14.21-.311.375-.171.164-.311.337-.311.382 0 .046-.175.262-.389.48-.214.22-.389.432-.389.474 0 .042-.14.21-.311.375-.171.164-.311.33-.311.369 0 .038-.175.257-.389.486-.213.229-.388.463-.388.52 0 .056-.035.102-.078.102-.052 0-.078-3.214-.078-9.487V6.314h-10.109v18.82ZM12.331 14.636c-.026.042-.271.077-.544.077s-.518.035-.544.078c-.027.043-.202.078-.39.078-.187 0-.361.035-.388.077-.027.043-.167.078-.311.078-.145 0-.285.035-.311.078-.027.043-.151.078-.277.078-.126 0-.229.035-.229.078s-.105.078-.233.078-.233.034-.233.077-.105.078-.234.078c-.128 0-.233.035-.233.078 0 .042-.07.077-.155.077-.086 0-.156.035-.156.078s-.065.078-.144.078c-.178 0-1.1.468-1.1.557 0 .036-.07.065-.155.065-.086 0-.156.035-.156.078 0 .042-.062.077-.138.077-.076 0-.19.07-.251.156-.062.086-.153.156-.202.156-.05 0-.235.14-.41.31-.177.172-.348.313-.38.314-.098.003-.597.488-.796.775-.104.15-.286.365-.406.479-.12.113-.217.254-.217.313s-.07.158-.155.22c-.086.061-.156.174-.156.25 0 .076-.035.138-.078.138-.042 0-.077.07-.077.156 0 .085-.035.155-.078.155s-.078.07-.078.156c0 .085-.035.155-.078.155-.042 0-.077.07-.077.156 0 .085-.035.155-.078.155s-.078.07-.078.156-.035.156-.077.156c-.043 0-.078.105-.078.233s-.035.233-.078.233-.078.105-.078.233c0 .129-.035.234-.078.234s-.078.137-.078.306c0 .169-.035.328-.077.355-.043.026-.078.271-.078.544s-.035.518-.078.544c-.046.029-.077.532-.077 1.25 0 .748.029 1.2.077 1.2.043 0 .078.207.078.467 0 .259.035.466.078.466.042 0 .077.14.077.311 0 .171.035.311.078.311s.078.105.078.233c0 .129.035.234.078.234s.078.07.078.155c0 .086.035.156.078.156.042 0 .077.07.077.155 0 .086.035.156.078.156s.078.07.078.156c0 .085.035.155.077.155.043 0 .078.053.078.118 0 .064.367.484.816.933.448.448.868.815.933.815.065 0 .118.031.118.069 0 .038.06.088.136.112.182.058.596.31.628.383.014.032.076.058.137.058.062 0 .19.04.286.09.364.189.447.221.561.221.065 0 .118.035.118.078s.105.078.233.078c.129 0 .234.035.234.078s.104.078.233.078c.128 0 .233.035.233.077 0 .043.105.078.233.078.129 0 .234.035.234.078 0 .042.12.078.267.078.147 0 .29.034.316.077.027.043.166.078.311.078s.285.035.31.078c.027.043.187.078.355.078.169 0 .307.035.307.078 0 .042.155.077.345.077.19 0 .367.035.394.078.026.043.186.078.354.078.169 0 .307.035.307.077 0 .043.14.078.311.078.17 0 .31.035.31.078s.106.078.236.078c.128 0 .294.03.369.069.074.038.231.108.348.155.43.175.603.27.603.333 0 .036.055.065.123.065.19 0 .5.41.5.66 0 .065.034.117.077.117s.078.208.078.467c0 .26-.035.467-.078.467s-.078.053-.078.118c0 .263-.606.97-.832.97-.055 0-.1.036-.1.078 0 .043-.07.078-.156.078s-.156.035-.156.078c0 .042-.105.077-.233.077-.129 0-.234.035-.234.078 0 .05-.492.078-1.322.078-.83 0-1.321-.029-1.321-.078 0-.043-.175-.078-.39-.078-.213 0-.388-.035-.388-.077 0-.043-.12-.078-.268-.078-.147 0-.289-.035-.315-.078-.027-.042-.152-.077-.277-.077-.126 0-.229-.035-.229-.078s-.085-.078-.19-.078c-.104 0-.211-.035-.238-.078-.026-.043-.116-.078-.199-.078-.082 0-.15-.035-.15-.078 0-.042-.054-.077-.118-.077a.749.749 0 0 1-.273-.078 89.192 89.192 0 0 0-.308-.155.747.747 0 0 0-.272-.078c-.065 0-.118-.035-.118-.078 0-.042-.07-.078-.156-.078-.085 0-.155-.035-.155-.078 0-.042-.046-.077-.102-.077-.056 0-.177-.07-.27-.156-.091-.085-.22-.155-.286-.155-.066 0-.12-.035-.12-.078s-.062-.078-.138-.078c-.076 0-.19-.07-.25-.155-.062-.086-.159-.156-.215-.156-.057 0-.179-.07-.27-.156-.092-.085-.213-.155-.27-.155-.055 0-.101-.035-.101-.078 0-.238-.397-.061-.524.233-.074.172-.162.312-.195.312-.032 0-.059.07-.059.155 0 .086-.035.156-.078.156-.042 0-.077.07-.077.155 0 .086-.035.156-.078.156s-.078.07-.078.155c0 .086-.035.156-.077.156-.043 0-.078.07-.078.155 0 .086-.035.156-.078.156s-.078.07-.078.155c0 .086-.035.156-.078.156s-.078.07-.078.156c0 .085-.035.155-.077.155-.043 0-.078.07-.078.155 0 .086-.035.156-.078.156-.042 0-.077.07-.077.156 0 .085-.035.155-.078.155s-.078.07-.078.156c0 .085-.035.155-.078.155s-.078.07-.078.156c0 .085-.035.155-.077.155-.043 0-.078.07-.078.156 0 .085-.035.155-.078.155s-.078.07-.078.156c0 .085-.035.155-.077.155-.043 0-.078.07-.078.156s-.035.156-.078.156-.078.07-.078.155c0 .085-.035.155-.077.155-.043 0-.078.068-.078.15 0 .081-.027.16-.059.175-.031.014-.141.183-.243.375-.102.193-.286.538-.409.766-.27.506-.307 1.023-.073 1.023.081 0 .16.026.175.058.032.073.446.326.628.384.075.023.136.074.136.111 0 .038.07.07.156.07.085 0 .155.034.155.077 0 .042.07.078.156.078.085 0 .155.034.155.077s.07.078.156.078.156.035.156.078.085.078.19.078c.104 0 .21.035.237.078.027.042.116.077.2.077.082 0 .15.035.15.078s.07.078.156.078c.085 0 .155.035.155.077 0 .043.086.078.19.078.105 0 .211.035.238.078.026.043.116.078.199.078s.151.035.151.078.105.078.233.078c.129 0 .234.035.234.077 0 .043.105.078.233.078s.233.035.233.078c0 .042.105.077.233.077.129 0 .234.035.234.078s.14.078.31.078c.172 0 .312.035.312.078s.12.077.267.077c.148 0 .29.035.316.078.027.043.186.078.355.078.168 0 .306.035.306.078s.207.078.467.078c.259 0 .466.034.466.077 0 .046.26.078.622.078.363 0 .622.032.622.078 0 .05.699.077 1.94.077 1.21 0 1.958-.028 1.988-.077.026-.043.323-.078.66-.078.338 0 .635-.035.661-.078.027-.042.221-.077.433-.077.211 0 .384-.035.384-.078s.138-.078.306-.078c.169 0 .329-.035.355-.078.027-.043.169-.078.316-.078s.267-.034.267-.077.105-.078.234-.078c.128 0 .233-.035.233-.078s.105-.078.233-.078.233-.035.233-.077c0-.043.106-.078.234-.078s.233-.035.233-.078c0-.042.07-.078.155-.078.086 0 .156-.034.156-.077s.053-.078.118-.078c.125 0 .249-.053.62-.265a2.53 2.53 0 0 1 .37-.177c.075-.024.136-.074.136-.112 0-.038.07-.068.156-.068.085 0 .155-.035.155-.078s.046-.078.103-.078c.056 0 .176-.07.268-.155.092-.086.199-.156.237-.156.038 0 .18-.105.313-.233.135-.129.277-.233.316-.233.105 0 1.408-1.298 1.408-1.403 0-.05.105-.189.233-.308.128-.12.233-.266.233-.325 0-.06.07-.158.156-.22.085-.061.155-.174.155-.25 0-.076.035-.139.078-.139s.078-.07.078-.155c0-.085.035-.155.077-.155.043 0 .078-.07.078-.156s.035-.156.078-.156.078-.07.078-.155c0-.086.035-.156.077-.156.043 0 .078-.068.078-.15 0-.084.035-.173.078-.2.043-.026.078-.133.078-.238 0-.104.035-.19.078-.19.042 0 .077-.102.077-.228s.035-.25.078-.277c.043-.026.078-.203.078-.393s.035-.346.077-.346c.045 0 .078-.232.078-.54 0-.296.035-.56.078-.587.103-.064.103-2.036 0-2.1-.043-.026-.078-.256-.078-.51 0-.256-.034-.462-.078-.462-.042 0-.077-.14-.077-.311 0-.17-.035-.31-.078-.31s-.078-.106-.078-.234-.035-.233-.077-.233c-.043 0-.078-.086-.078-.19 0-.105-.035-.212-.078-.238-.043-.027-.078-.116-.078-.2 0-.082-.035-.15-.078-.15s-.078-.046-.078-.102c0-.056-.07-.177-.155-.27-.085-.091-.155-.212-.155-.269 0-.056-.07-.153-.156-.214-.085-.062-.155-.154-.155-.204 0-.109-1.123-1.274-1.228-1.274-.04 0-.181-.105-.316-.233-.134-.129-.28-.234-.325-.234-.045 0-.157-.07-.249-.155-.092-.086-.213-.156-.27-.156-.055 0-.1-.035-.1-.078 0-.042-.07-.077-.157-.077-.085 0-.155-.035-.155-.078S20.31 27 20.225 27c-.086 0-.156-.035-.156-.078s-.068-.078-.15-.078c-.084 0-.174-.035-.2-.077-.026-.043-.134-.078-.238-.078-.104 0-.19-.035-.19-.078 0-.042-.068-.077-.15-.077-.084 0-.173-.035-.2-.078-.026-.043-.131-.078-.233-.078-.102 0-.207-.035-.233-.078-.027-.043-.169-.078-.316-.078s-.267-.035-.267-.078c0-.042-.14-.077-.311-.077-.172 0-.312-.035-.312-.078s-.14-.078-.31-.078c-.172 0-.312-.035-.312-.077 0-.043-.138-.078-.306-.078-.169 0-.328-.035-.355-.078-.026-.043-.203-.078-.393-.078s-.345-.035-.345-.077c0-.043-.14-.078-.312-.078-.17 0-.31-.035-.31-.078s-.14-.078-.312-.078c-.17 0-.31-.035-.31-.078 0-.042-.104-.077-.23-.077-.125 0-.25-.035-.276-.078-.027-.043-.134-.078-.238-.078-.105 0-.19-.035-.19-.077 0-.043-.054-.078-.119-.078-.13 0-.56-.411-.717-.685-.115-.2-.13-1.026-.02-1.026.044 0 .079-.053.079-.119 0-.23.858-.97 1.126-.97.065 0 .117-.035.117-.078 0-.042.104-.077.23-.077.125 0 .25-.035.276-.078.028-.046.492-.078 1.128-.078.636 0 1.099.032 1.127.078.027.043.221.078.433.078.21 0 .384.035.384.077 0 .043.14.078.311.078.17 0 .31.035.31.078s.106.078.234.078.233.035.233.077c0 .043.105.078.234.078.128 0 .233.035.233.078s.068.078.151.078c.083 0 .173.035.199.078.027.042.133.077.238.077.104 0 .19.035.19.078s.07.078.155.078c.086 0 .156.035.156.077 0 .043.07.078.155.078.086 0 .156.035.156.078 0 .16.426.08.514-.098.324-.65.622-1.19.672-1.211.032-.014.058-.093.058-.175 0-.082.035-.149.078-.149s.078-.07.078-.156c0-.085.035-.155.078-.155.042 0 .077-.07.077-.155 0-.086.035-.156.078-.156s.078-.07.078-.156c0-.085.035-.155.078-.155.042 0 .077-.07.077-.156 0-.085.035-.155.078-.155s.078-.07.078-.156c0-.085.035-.155.078-.155.042 0 .077-.07.077-.156 0-.085.035-.155.078-.155s.078-.07.078-.156c0-.085.035-.155.078-.155s.078-.07.078-.156.035-.156.077-.156c.043 0 .078-.07.078-.155 0-.085.035-.155.078-.155.042 0 .077-.07.077-.156s.035-.156.078-.156.078-.07.078-.155c0-.086.035-.156.078-.156s.078-.07.078-.155c0-.086.026-.155.058-.155s.108-.114.168-.253c.06-.14.173-.346.252-.46.2-.288.194-.687-.012-.687-.085 0-.155-.035-.155-.078s-.105-.078-.233-.078c-.129 0-.234-.035-.234-.078s-.068-.078-.151-.078c-.083 0-.173-.035-.199-.078-.026-.042-.131-.077-.233-.077-.102 0-.207-.035-.233-.078-.027-.043-.132-.078-.234-.078-.102 0-.207-.035-.233-.077-.026-.043-.168-.078-.316-.078-.147 0-.267-.035-.267-.078s-.103-.078-.229-.078-.25-.035-.277-.077c-.026-.043-.184-.078-.35-.078-.166 0-.323-.035-.35-.078-.026-.043-.184-.078-.35-.078-.166 0-.323-.035-.35-.078-.026-.042-.238-.077-.471-.077-.232 0-.423-.035-.423-.078 0-.045-.26-.078-.622-.078-.363 0-.622-.032-.622-.077 0-.05-.84-.078-2.367-.078-1.495 0-2.385.028-2.416.078Zm145.421 0c-.027.042-.291.077-.588.077-.308 0-.54.034-.54.078 0 .043-.175.078-.388.078-.215 0-.39.035-.39.077 0 .043-.14.078-.31.078-.172 0-.311.035-.311.078s-.104.078-.229.078c-.126 0-.251.035-.277.078-.026.043-.131.078-.233.078-.102 0-.207.034-.233.077-.027.043-.134.078-.238.078-.105 0-.19.035-.19.078 0 .042-.086.077-.19.077-.105 0-.212.035-.238.078-.026.043-.116.078-.199.078s-.151.035-.151.078c0 .042-.07.077-.155.077-.086 0-.156.035-.156.078s-.07.078-.156.078c-.085 0-.155.035-.155.078s-.046.078-.102.078c-.056 0-.177.07-.269.155-.092.085-.213.155-.27.155-.056 0-.153.07-.214.156-.062.086-.162.156-.222.156-.061 0-.167.063-.236.14a2.857 2.857 0 0 1-.398.328c-.32.22-1.244 1.152-1.244 1.252 0 .038-.105.18-.233.314-.129.134-.234.275-.234.313 0 .039-.07.145-.155.237-.086.091-.156.213-.156.269 0 .056-.035.102-.078.102-.042 0-.077.07-.077.155 0 .086-.035.156-.078.156s-.078.07-.078.155c0 .086-.035.156-.077.156-.043 0-.078.085-.078.19 0 .104-.035.211-.078.237-.043.027-.078.117-.078.2s-.035.15-.078.15-.078.103-.078.229-.035.25-.077.277c-.043.026-.078.169-.078.316s-.035.267-.078.267-.077.207-.077.467c0 .259-.035.466-.078.466-.05 0-.078.57-.078 1.556 0 .985.028 1.555.078 1.555.043 0 .078.175.078.389 0 .214.035.389.077.389.043 0 .078.14.078.31 0 .172.035.312.078.312.042 0 .077.068.077.15 0 .084.035.173.078.2.043.026.078.133.078.238 0 .104.035.19.078.19s.078.061.078.138c0 .076.07.189.155.25.086.062.156.167.156.233 0 .067.07.172.155.234.086.061.156.15.156.196 0 .118.451.59.777.814.15.103.329.25.398.327.069.077.167.14.217.14.051 0 .167.07.259.156s.213.156.269.156c.056 0 .102.035.102.077 0 .043.07.078.155.078.086 0 .156.035.156.078 0 .042.07.077.155.077.086 0 .156.035.156.078s.068.078.15.078c.084 0 .173.035.2.078.026.043.133.078.238.078.104 0 .19.035.19.077 0 .043.067.078.15.078.083 0 .173.035.2.078.026.043.148.078.272.078.123 0 .245.035.272.077.026.043.151.078.277.078.125 0 .228.035.228.078 0 .042.103.078.229.078.125 0 .25.034.277.077.026.043.166.078.311.078s.285.035.311.078c.026.043.203.078.393.078s.346.035.346.078c0 .042.137.077.306.077.169 0 .328.035.354.078.027.043.204.078.394.078.19 0 .345.035.345.077 0 .043.14.078.311.078.171 0 .311.035.311.078s.104.078.229.078c.126 0 .251.035.277.078.026.043.133.078.238.078.104 0 .19.035.19.077 0 .043.053.078.117.078.335 0 1.127.731 1.127 1.04 0 .112.035.204.077.204.043 0 .078.138.078.306 0 .17-.035.329-.078.355-.042.027-.077.133-.077.238 0 .104-.035.19-.078.19s-.078.044-.078.097c0 .142-.349.525-.478.525-.06 0-.16.07-.222.156-.061.085-.174.155-.25.155-.076 0-.138.035-.138.078 0 .042-.105.077-.234.077-.128 0-.233.035-.233.078 0 .05-.493.078-1.322.078-.829 0-1.322-.029-1.322-.078 0-.043-.175-.078-.389-.078-.213 0-.388-.035-.388-.077 0-.043-.14-.078-.312-.078-.171 0-.311-.035-.311-.078 0-.042-.105-.077-.233-.077-.129 0-.233-.035-.233-.078s-.105-.078-.234-.078c-.128 0-.233-.035-.233-.078s-.07-.078-.155-.078c-.086 0-.156-.035-.156-.078 0-.042-.105-.077-.233-.077s-.233-.035-.233-.078-.07-.078-.156-.078-.156-.035-.156-.077c0-.043-.07-.078-.155-.078-.086 0-.156-.035-.156-.078 0-.042-.07-.078-.155-.078-.086 0-.156-.035-.156-.078 0-.042-.07-.077-.155-.077-.086 0-.156-.035-.156-.078s-.046-.078-.102-.078c-.056 0-.177-.07-.269-.155-.092-.086-.22-.156-.287-.156-.066 0-.12-.035-.12-.077 0-.043-.045-.078-.101-.078-.056 0-.178-.07-.27-.156-.091-.086-.212-.156-.269-.156-.057 0-.153-.07-.215-.155a.424.424 0 0 0-.328-.155c-.165 0-.216.037-.216.155 0 .085-.035.155-.078.155s-.078.07-.078.156-.035.156-.078.156c-.042 0-.077.07-.077.155 0 .086-.035.156-.078.156s-.078.07-.078.155c0 .086-.035.156-.077.156-.043 0-.078.07-.078.155 0 .086-.035.156-.078.156s-.078.07-.078.155c0 .086-.035.156-.078.156s-.078.067-.078.149c0 .082-.026.16-.058.175-.032.014-.167.236-.3.493-.485.936-.614 1.166-.672 1.192-.032.014-.058.093-.058.175 0 .082-.035.149-.078.149-.042 0-.077.07-.077.155 0 .086-.035.156-.078.156s-.078.07-.078.156c0 .085-.035.155-.078.155s-.078.07-.078.155c0 .086-.035.156-.078.156-.042 0-.077.07-.077.156 0 .085-.035.155-.078.155s-.078.07-.078.156c0 .085-.035.155-.077.155-.043 0-.078.07-.078.156 0 .085-.035.155-.078.155s-.078.07-.078.156c0 .085-.035.155-.078.155s-.078.07-.078.156c0 .085-.035.155-.077.155-.043 0-.078.07-.078.156s-.035.156-.078.156c-.248 0-.032.35.331.537.118.061.214.14.214.175 0 .036.07.065.155.065.086 0 .156.035.156.078s.07.078.155.078c.086 0 .156.035.156.077 0 .043.07.078.156.078.085 0 .155.035.155.078 0 .042.07.078.155.078.086 0 .156.034.156.077s.07.078.155.078c.086 0 .156.035.156.078s.07.078.156.078c.085 0 .155.035.155.078 0 .042.085.077.19.077.104 0 .211.035.238.078.026.043.116.078.199.078s.151.035.151.077c0 .043.068.078.151.078.083 0 .172.035.199.078.026.043.133.078.238.078.104 0 .189.035.189.078s.105.078.234.078c.128 0 .233.035.233.077 0 .043.105.078.233.078s.233.035.233.078c0 .042.105.077.234.077.128 0 .233.035.233.078s.103.078.229.078.25.035.277.078c.026.043.166.077.311.077.144 0 .284.035.311.078.026.043.203.078.393.078s.345.035.345.078.173.078.385.078c.211 0 .406.035.432.077.026.043.324.078.661.078s.635.035.661.078c.03.049.778.077 1.988.077 1.241 0 1.939-.028 1.939-.077 0-.046.259-.078.622-.078s.622-.032.622-.078c0-.043.208-.077.467-.077s.467-.035.467-.078.14-.078.311-.078c.171 0 .311-.035.311-.078s.14-.078.311-.078c.171 0 .311-.034.311-.077s.105-.078.233-.078c.129 0 .234-.035.234-.078s.105-.078.233-.078.233-.035.233-.077c0-.043.086-.078.19-.078.104 0 .211-.035.238-.078.026-.042.116-.078.199-.078s.15-.034.15-.077.07-.078.156-.078.156-.035.156-.078.07-.078.155-.078c.086 0 .156-.035.156-.078 0-.042.07-.077.155-.077.086 0 .156-.035.156-.078s.07-.078.156-.078c.085 0 .155-.035.155-.077 0-.043.07-.078.155-.078.086 0 .156-.03.156-.065 0-.036.096-.114.214-.174.117-.06.27-.172.339-.247.07-.075.169-.136.222-.136.053 0 .194-.105.314-.234.12-.128.251-.233.291-.233.102 0 1.108-.997 1.108-1.099 0-.045.105-.18.234-.3.128-.12.233-.267.233-.326s.07-.158.155-.22c.086-.06.156-.157.156-.214 0-.057.07-.178.156-.27.085-.091.155-.213.155-.269 0-.056.035-.101.078-.101s.078-.07.078-.156.035-.156.077-.156c.043 0 .078-.068.078-.15 0-.083.035-.173.078-.2.043-.026.078-.133.078-.237 0-.105.035-.19.077-.19.043 0 .078-.105.078-.234 0-.128.035-.233.078-.233s.078-.103.078-.229c0-.125.035-.25.078-.276.042-.027.077-.204.077-.394 0-.19.035-.345.078-.345.05 0 .078-.7.078-1.944 0-1.245-.028-1.944-.078-1.944-.043 0-.078-.14-.078-.311 0-.172-.035-.312-.077-.312-.043 0-.078-.103-.078-.228 0-.126-.035-.25-.078-.277-.043-.026-.078-.133-.078-.238 0-.104-.035-.19-.078-.19-.042 0-.077-.07-.077-.155 0-.086-.035-.156-.078-.156s-.078-.07-.078-.155c0-.086-.035-.156-.078-.156-.042 0-.077-.07-.077-.155 0-.086-.03-.156-.065-.156s-.114-.096-.175-.213a1.529 1.529 0 0 0-.23-.331 3.215 3.215 0 0 1-.308-.389c-.213-.31-.695-.778-.801-.778-.038 0-.162-.096-.276-.213a1.957 1.957 0 0 0-.42-.325c-.117-.06-.214-.14-.214-.175 0-.035-.07-.064-.155-.064-.086 0-.156-.03-.156-.066 0-.037-.236-.18-.525-.32-.288-.14-.586-.284-.66-.322a.67.67 0 0 0-.252-.07c-.065 0-.118-.035-.118-.078 0-.042-.105-.077-.234-.077-.128 0-.233-.035-.233-.078s-.105-.078-.233-.078c-.129 0-.234-.035-.234-.078s-.104-.078-.233-.078c-.128 0-.233-.035-.233-.078 0-.042-.14-.077-.311-.077-.171 0-.311-.035-.311-.078s-.138-.078-.307-.078c-.168 0-.328-.035-.354-.077-.026-.043-.204-.078-.394-.078-.189 0-.345-.035-.345-.078s-.14-.078-.311-.078c-.171 0-.311-.035-.311-.077 0-.043-.138-.078-.306-.078-.169 0-.328-.035-.355-.078-.027-.043-.167-.078-.311-.078-.145 0-.285-.035-.311-.078-.027-.042-.168-.077-.316-.077-.147 0-.267-.035-.267-.078s-.07-.078-.156-.078c-.085 0-.155-.035-.155-.077 0-.043-.07-.078-.156-.078s-.156-.028-.156-.061c0-.034-.105-.123-.233-.2-.128-.075-.233-.187-.233-.25 0-.06-.035-.111-.078-.111-.045 0-.078-.26-.078-.623 0-.342.029-.622.065-.622.036 0 .114-.096.175-.213.145-.28.269-.409.399-.409.058 0 .155-.07.217-.155a.402.402 0 0 1 .285-.156c.095 0 .194-.035.22-.078.027-.042.151-.077.277-.077.126 0 .229-.035.229-.078 0-.048.413-.078 1.084-.078.639 0 1.104.032 1.132.078.027.043.239.078.471.078.233 0 .424.035.424.077 0 .043.12.078.267.078.147 0 .289.035.316.078.026.043.151.078.276.078.126 0 .229.035.229.077 0 .043.086.078.19.078.105 0 .211.035.238.078.026.043.116.078.199.078s.151.035.151.078c0 .042.053.077.118.077.064 0 .187.035.272.078l.308.155a.753.753 0 0 0 .273.078c.064 0 .117.035.117.078s.105.078.234.078c.181 0 .233-.035.233-.156 0-.085.035-.155.078-.155.042 0 .077-.07.077-.156 0-.085.035-.155.078-.155s.078-.07.078-.156c0-.085.035-.155.078-.155s.078-.07.078-.156c0-.085.035-.155.078-.155.042 0 .077-.07.077-.156 0-.085.035-.155.078-.155s.078-.07.078-.156.035-.156.077-.156c.043 0 .078-.07.078-.155 0-.085.035-.155.078-.155s.078-.068.078-.15c0-.081.026-.16.058-.175.057-.025.187-.255.672-1.192.133-.256.268-.478.3-.493.032-.014.059-.092.059-.175 0-.082.035-.148.077-.148.043 0 .078-.07.078-.156s.035-.156.078-.156c.042 0 .077-.07.077-.155 0-.086.035-.156.078-.156s.078-.07.078-.155c0-.086.035-.155.078-.155s.078-.07.078-.156.035-.156.078-.156c.042 0 .077-.07.077-.155 0-.086.035-.156.078-.156s.078-.07.078-.155c0-.086.035-.156.077-.156.043 0 .078-.105.078-.233 0-.18-.035-.233-.151-.233-.083 0-.172-.035-.199-.078-.026-.043-.133-.078-.238-.078-.104 0-.19-.035-.19-.078s-.105-.078-.233-.078-.233-.035-.233-.078c0-.042-.086-.077-.19-.077-.104 0-.211-.035-.238-.078-.026-.043-.151-.078-.277-.078-.125 0-.228-.035-.228-.077 0-.043-.105-.078-.234-.078-.128 0-.233-.035-.233-.078s-.14-.078-.311-.078c-.171 0-.311-.035-.311-.077 0-.043-.14-.078-.311-.078-.171 0-.311-.035-.311-.078s-.155-.078-.345-.078c-.191 0-.367-.035-.394-.078-.026-.042-.219-.077-.427-.077-.209 0-.402-.035-.428-.078-.027-.043-.309-.078-.627-.078-.334 0-.578-.033-.578-.077 0-.05-.842-.078-2.368-.078-1.494 0-2.385.028-2.415.078Zm-113.265.155c0 .043-.207.078-.466.078-.26 0-.467.034-.467.077s-.14.078-.311.078c-.171 0-.311.035-.311.078s-.106.078-.235.078c-.128 0-.303.035-.388.078l-.31.155a.825.825 0 0 1-.31.078c-.087 0-.157.035-.157.078 0 .042-.07.077-.155.077-.086 0-.156.035-.156.078s-.07.078-.156.078c-.085 0-.155.035-.155.078 0 .042-.07.077-.155.077-.086 0-.156.035-.156.078s-.062.078-.138.078c-.076 0-.19.07-.25.156-.063.085-.167.155-.234.155s-.172.07-.233.155c-.062.086-.155.156-.208.156-.052 0-.447.35-.877.778-.431.427-.8.777-.822.777-.02 0-.038-.63-.038-1.4v-1.4H27.69v38.417H37.8v-6.143c0-3.38.023-6.144.05-6.144.027 0 .106.063.175.14.069.076.248.225.398.33.149.104.373.286.497.404.124.118.265.215.314.215.048 0 .138.07.2.155.06.086.158.156.214.156.057 0 .178.07.27.155.092.086.213.156.269.156.056 0 .102.035.102.077 0 .043.07.078.155.078.086 0 .156.035.156.078s.07.078.156.078c.085 0 .155.035.155.078s.07.078.155.078c.086 0 .156.035.156.077 0 .043.068.078.15.078.084 0 .173.035.2.078.026.042.134.077.238.077.104 0 .19.035.19.078s.104.078.233.078c.128 0 .233.035.233.078s.14.077.311.077c.172 0 .311.035.311.078s.14.078.311.078c.171 0 .311.035.311.078 0 .044.232.078.54.078.297 0 .562.035.588.077.03.048.647.078 1.594.078.947 0 1.565-.03 1.595-.078.026-.042.271-.077.544-.077s.518-.035.544-.078c.027-.043.184-.078.35-.078.166 0 .324-.035.35-.078.026-.043.168-.078.316-.078.147 0 .267-.034.267-.077s.103-.078.229-.078.25-.035.277-.078c.026-.043.133-.078.238-.078.104 0 .19-.035.19-.077 0-.043.104-.078.233-.078.128 0 .233-.035.233-.078 0-.042.07-.078.156-.078.085 0 .155-.034.155-.077s.07-.078.156-.078c.085 0 .155-.035.155-.078s.07-.078.156-.078c.085 0 .155-.035.155-.078 0-.042.07-.077.156-.077.085 0 .155-.035.155-.078s.07-.078.156-.078c.085 0 .155-.035.155-.077 0-.043.046-.078.102-.078.056 0 .178-.07.27-.156.09-.085.212-.155.27-.155.056 0 .152-.07.214-.156.061-.085.16-.155.22-.155.058 0 .204-.105.324-.234.12-.128.254-.233.298-.233.096 0 2.035-1.908 2.035-2.002 0-.036.14-.22.311-.409.171-.189.311-.38.311-.427 0-.045.07-.133.156-.195.085-.061.155-.166.155-.233s.07-.172.156-.233c.085-.062.155-.175.155-.25 0-.077.035-.14.078-.14s.078-.07.078-.155c0-.085.03-.155.069-.155.037 0 .088-.062.112-.136a2.5 2.5 0 0 1 .176-.37c.212-.372.265-.495.265-.621 0-.064.035-.118.078-.118.042 0 .077-.07.077-.155 0-.086.035-.156.078-.156s.078-.067.078-.15c0-.084.035-.173.078-.2.043-.026.078-.133.078-.238 0-.104.035-.19.078-.19.042 0 .077-.104.077-.232 0-.129.035-.234.078-.234s.078-.105.078-.233.035-.233.077-.233c.043 0 .078-.14.078-.312 0-.17.035-.31.078-.31.042 0 .078-.176.078-.39 0-.213.035-.388.078-.388.042 0 .077-.206.077-.462 0-.254.035-.484.078-.51.049-.03.078-.87.078-2.26 0-1.423-.028-2.212-.078-2.212-.043 0-.078-.206-.078-.462 0-.254-.035-.484-.078-.51-.043-.026-.078-.203-.078-.393s-.035-.346-.077-.346c-.043 0-.078-.14-.078-.31 0-.172-.035-.312-.078-.312-.042 0-.077-.103-.077-.228 0-.126-.035-.25-.078-.277-.043-.027-.078-.132-.078-.233 0-.102-.035-.207-.078-.234-.042-.026-.077-.133-.077-.238 0-.104-.035-.19-.078-.19s-.078-.085-.078-.19c0-.104-.035-.21-.078-.237-.043-.026-.078-.116-.078-.2 0-.082-.035-.15-.077-.15-.043 0-.078-.07-.078-.156 0-.085-.035-.155-.078-.155-.042 0-.077-.07-.077-.156 0-.085-.035-.155-.078-.155s-.078-.07-.078-.156c0-.085-.035-.155-.078-.155s-.078-.07-.078-.156c0-.085-.035-.155-.078-.155-.042 0-.077-.063-.077-.139 0-.076-.07-.189-.156-.25-.085-.062-.155-.174-.155-.25 0-.077-.03-.139-.065-.139s-.114-.096-.174-.214a1.45 1.45 0 0 0-.247-.34c-.075-.069-.136-.168-.136-.221 0-.053-.098-.189-.217-.302a3.792 3.792 0 0 1-.407-.478c-.226-.326-1.46-1.556-1.56-1.556-.04 0-.215-.14-.392-.31-.176-.172-.36-.312-.41-.312-.05 0-.141-.07-.203-.155-.061-.086-.166-.156-.233-.156s-.172-.07-.233-.155c-.062-.086-.172-.156-.244-.156-.073 0-.144-.026-.158-.058-.032-.073-.447-.326-.629-.384-.074-.023-.136-.073-.136-.111 0-.038-.07-.07-.155-.07-.086 0-.156-.034-.156-.077s-.07-.078-.155-.078c-.086 0-.156-.035-.156-.078 0-.042-.105-.077-.233-.077-.129 0-.233-.035-.233-.078s-.07-.078-.156-.078-.156-.035-.156-.077c0-.043-.105-.078-.233-.078s-.233-.035-.233-.078-.105-.078-.234-.078c-.128 0-.233-.035-.233-.077 0-.043-.12-.078-.267-.078-.148 0-.29-.035-.316-.078-.026-.043-.186-.078-.355-.078-.168 0-.306-.035-.306-.078s-.206-.077-.462-.077c-.254 0-.484-.035-.51-.078-.03-.048-.74-.078-1.871-.078-1.163 0-1.823.029-1.823.078Zm51.17.311c0 .043-.191.078-.423.078-.233 0-.445.035-.472.078-.026.043-.166.078-.31.078-.145 0-.285.034-.312.077-.026.043-.15.078-.277.078-.125 0-.228.035-.228.078 0 .042-.105.077-.234.077-.128 0-.233.035-.233.078s-.07.078-.155.078c-.086 0-.156.035-.156.078 0 .042-.07.077-.156.077-.085 0-.155.035-.155.078s-.07.078-.156.078c-.085 0-.155.035-.155.078s-.07.078-.156.078c-.085 0-.155.029-.155.064 0 .036-.097.114-.214.175a1.45 1.45 0 0 0-.34.246c-.069.075-.163.137-.21.137-.046 0-.506.42-1.022.933-.515.513-.954.933-.975.933-.022 0-.039-.735-.039-1.634V15.49l-5.035.02-5.035.02-.02 14.211-.02 14.212h10.11v-7.621c0-5.029.027-7.621.078-7.621.047 0 .078-.311.078-.778 0-.466.03-.777.077-.777.043 0 .078-.14.078-.312 0-.17.035-.31.078-.31s.078-.105.078-.234c0-.128.035-.233.078-.233s.078-.07.078-.156c0-.085.034-.155.077-.155s.078-.07.078-.155c0-.086.035-.156.078-.156.042 0 .077-.052.077-.116 0-.242 1.198-1.44 1.44-1.44.064 0 .116-.034.116-.077s.07-.078.155-.078c.086 0 .156-.035.156-.078s.07-.078.155-.078c.086 0 .156-.035.156-.077 0-.043.12-.078.267-.078.148 0 .29-.035.316-.078.027-.043.237-.078.467-.078.23 0 .44-.034.466-.077.027-.043.221-.078.433-.078.21 0 .384.035.384.078s.207.077.466.077c.26 0 .467.035.467.078s.105.078.233.078c.129 0 .234.035.234.078 0 .042.07.077.155.077.086 0 .156.035.156.078s.07.078.155.078c.086 0 .156.029.156.064 0 .036.096.115.213.176.273.14.65.517.791.79.061.118.14.214.175.214.036 0 .065.07.065.156 0 .085.035.155.078.155.042 0 .077.07.077.156 0 .085.035.155.078.155s.078.086.078.19c0 .104.035.212.078.238.043.027.078.166.078.311s.034.285.078.311c.042.026.077.254.077.506 0 .251.035.479.078.505.05.032.078 2.84.078 8.17v8.122h10.265v-9.099c0-6.014-.027-9.098-.078-9.098-.049 0-.078-.452-.078-1.2 0-.717-.031-1.221-.078-1.25-.042-.026-.077-.256-.077-.51 0-.256-.035-.462-.078-.462s-.078-.14-.078-.31c0-.172-.035-.312-.078-.312s-.078-.105-.078-.233c0-.129-.035-.234-.077-.234-.043 0-.078-.105-.078-.233s-.035-.233-.078-.233c-.042 0-.077-.07-.077-.156 0-.085-.035-.155-.078-.155s-.078-.07-.078-.156c0-.085-.035-.155-.078-.155s-.078-.07-.078-.156c0-.085-.035-.155-.078-.155-.042 0-.077-.063-.077-.139 0-.076-.07-.189-.156-.25-.085-.062-.155-.16-.155-.22 0-.058-.105-.205-.234-.325-.128-.12-.233-.254-.233-.3 0-.106-1.149-1.255-1.255-1.255-.045 0-.18-.105-.3-.233s-.266-.233-.325-.233-.158-.07-.22-.156c-.061-.086-.174-.156-.25-.156-.076 0-.138-.035-.138-.077 0-.043-.046-.078-.102-.078-.056 0-.177-.07-.269-.155-.092-.086-.221-.156-.287-.156-.066 0-.12-.035-.12-.078s-.068-.078-.151-.078c-.083 0-.172-.035-.199-.078-.027-.042-.133-.077-.238-.077-.104 0-.19-.035-.19-.078s-.085-.078-.189-.078c-.105 0-.212-.035-.238-.077-.027-.043-.151-.078-.277-.078-.126 0-.229-.035-.229-.078s-.14-.078-.311-.078c-.171 0-.311-.035-.311-.077 0-.043-.173-.078-.384-.078-.211 0-.406-.035-.432-.078-.031-.049-.895-.078-2.338-.078-1.474 0-2.29.028-2.29.078Zm-31.52.44c-.03.03-.053 6.433-.053 14.232v14.179H74.35l-.02-14.212-.02-14.211-5.06-.02c-2.784-.011-5.085.003-5.114.032Zm-19.339 8.114c0 .043.14.078.311.078.172 0 .311.035.311.078s.105.078.234.078c.128 0 .233.034.233.077s.07.078.155.078c.086 0 .156.035.156.078s.07.078.156.078c.085 0 .155.035.155.077 0 .043.07.078.155.078.086 0 .156.035.156.078s.053.078.117.078c.065 0 .228.104.362.233.134.128.274.233.312.233.108 0 1.076.998 1.076 1.11 0 .055.07.15.155.212.085.062.155.174.155.25 0 .077.027.14.059.14.07 0 .253.377.253.52 0 .056.035.101.078.101.042 0 .077.07.077.156 0 .085.035.155.078.155s.078.105.078.233c0 .129.035.234.077.234.043 0 .078.155.078.345 0 .19.035.367.078.393.045.028.078.44.078.973 0 .532-.033.944-.078.972-.043.026-.078.166-.078.31 0 .146-.035.285-.078.312-.042.026-.077.131-.077.233 0 .102-.035.207-.078.233-.043.027-.078.134-.078.238 0 .105-.035.19-.078.19-.042 0-.077.07-.077.156 0 .085-.035.155-.078.155s-.078.046-.078.102c0 .056-.07.177-.156.27-.085.09-.155.206-.155.255 0 .049-.097.181-.217.294a3.731 3.731 0 0 0-.405.48c-.237.34-.358.466-.45.466-.039 0-.173.096-.298.213a2.424 2.424 0 0 1-.44.325c-.116.06-.212.14-.212.175 0 .035-.07.064-.156.064-.085 0-.155.035-.155.078s-.07.078-.155.078c-.086 0-.156.035-.156.077 0 .043-.07.078-.156.078-.085 0-.155.035-.155.078s-.103.078-.229.078-.25.035-.277.078c-.026.043-.203.078-.393.078s-.345.035-.345.077c0 .047-.337.078-.856.078-.518 0-.855-.031-.855-.078 0-.042-.138-.078-.306-.078-.17 0-.329-.035-.355-.078-.027-.042-.132-.077-.233-.077-.102 0-.207-.035-.234-.078-.026-.043-.133-.078-.238-.078-.104 0-.19-.035-.19-.078 0-.042-.07-.077-.155-.077-.086 0-.156-.035-.156-.078s-.07-.078-.155-.078c-.085 0-.155-.029-.155-.064 0-.036-.097-.115-.215-.175a1.459 1.459 0 0 1-.34-.246c-.068-.075-.165-.137-.214-.137-.102 0-1.098-.973-1.098-1.073 0-.035-.061-.132-.136-.215a2.094 2.094 0 0 1-.246-.365c-.061-.117-.14-.213-.175-.213-.036 0-.065-.07-.065-.156 0-.085-.035-.155-.078-.155s-.078-.068-.078-.151c0-.083-.035-.173-.078-.2-.042-.026-.077-.133-.077-.237 0-.105-.035-.19-.078-.19s-.078-.14-.078-.311c0-.171-.035-.311-.077-.311-.049 0-.078-.467-.078-1.244 0-.778.03-1.245.078-1.245.042 0 .077-.12.077-.267 0-.147.035-.29.078-.316.043-.026.078-.116.078-.2 0-.082.035-.15.078-.15.042 0 .077-.049.077-.109 0-.13.325-.774.409-.81.032-.015.058-.086.058-.159 0-.072.07-.182.155-.244.086-.061.156-.159.156-.216 0-.117 1.294-1.417 1.41-1.417.04 0 .15-.07.241-.155.092-.086.213-.156.269-.156.056 0 .102-.035.102-.078 0-.042.07-.077.155-.077.086 0 .156-.035.156-.078s.068-.078.15-.078c.084 0 .173-.035.2-.078.026-.043.134-.077.238-.077.104 0 .19-.035.19-.078s.155-.078.345-.078c.19 0 .367-.035.394-.078.028-.045.467-.078 1.054-.078.619 0 1.006.03 1.006.078Z" fill="#FCFCFC"></path><path fill-rule="evenodd" clip-rule="evenodd" d="M67.66.171c0 .043-.103.078-.228.078-.126 0-.25.035-.277.078-.027.043-.134.078-.238.078-.105 0-.19.035-.19.077 0 .043-.07.078-.156.078-.085 0-.155.035-.155.078 0 .042-.07.077-.156.077-.085 0-.155.035-.155.078s-.062.078-.139.078c-.076 0-.188.07-.25.156-.061.085-.153.155-.202.155-.103 0-1.12.965-1.12 1.063 0 .036-.105.187-.233.337-.128.15-.233.316-.233.37 0 .053-.036.096-.078.096-.043 0-.078.07-.078.156s-.035.156-.078.156c-.042 0-.077.07-.077.155 0 .086-.035.156-.078.156s-.078.105-.078.233-.035.233-.078.233-.078.14-.078.311c0 .171-.035.311-.078.311-.048 0-.077.545-.077 1.478 0 .933.029 1.477.078 1.477.042 0 .077.103.077.229s.035.25.078.277c.043.026.078.133.078.238 0 .104.035.19.078.19s.078.07.078.155c0 .086.035.156.077.156.043 0 .078.07.078.155 0 .086.035.156.078.156.042 0 .077.062.077.138 0 .076.07.189.156.25.086.062.156.158.156.213 0 .131 1.067 1.193 1.342 1.337.117.06.213.14.213.175 0 .035.07.064.156.064.085 0 .155.027.155.058.001.07.378.253.521.253.056 0 .1.035.1.078s.07.078.157.078c.085 0 .155.034.155.077s.14.078.311.078c.171 0 .311.035.311.078s.173.078.385.078c.21 0 .406.035.432.078.026.042.358.077.739.077.38 0 .712-.035.738-.077.027-.043.222-.078.433-.078.21 0 .384-.035.384-.078s.12-.078.267-.078c.148 0 .29-.035.316-.078.027-.043.116-.077.2-.077.082 0 .15-.035.15-.078s.07-.078.155-.078c.086 0 .156-.035.156-.078 0-.042.07-.077.156-.077.085 0 .155-.035.155-.078s.044-.078.098-.078c.053 0 .219-.105.369-.233s.301-.233.337-.233c.097 0 .907-.863.907-.966 0-.049.07-.14.155-.201.086-.062.156-.171.156-.244 0-.072.026-.143.058-.158.084-.037.409-.681.409-.81 0-.061.035-.11.077-.11.043 0 .078-.105.078-.233 0-.129.035-.234.078-.234s.078-.14.078-.31c0-.172.034-.312.077-.312.049 0 .078-.466.078-1.244s-.029-1.244-.078-1.244c-.043 0-.078-.14-.078-.311 0-.171-.034-.311-.077-.311s-.078-.105-.078-.234c0-.128-.035-.233-.078-.233-.042 0-.077-.046-.077-.101 0-.143-.183-.52-.253-.52-.032 0-.058-.07-.058-.157 0-.085-.035-.155-.078-.155s-.078-.047-.078-.105c0-.058-.105-.215-.233-.35-.128-.134-.233-.27-.234-.302 0-.1-.334-.445-.622-.643a2.843 2.843 0 0 1-.398-.326c-.069-.077-.166-.14-.217-.14-.05 0-.166-.07-.258-.156s-.213-.156-.27-.156c-.055 0-.1-.035-.1-.077 0-.043-.069-.078-.152-.078-.083 0-.173-.035-.199-.078-.026-.042-.133-.077-.238-.077-.104 0-.19-.035-.19-.078s-.14-.078-.31-.078c-.172 0-.312-.035-.312-.078 0-.05-.544-.078-1.477-.078S67.66.122 67.66.171Z" fill="#0494D4"></path></svg>